# xmcd
#
# Track frame offsets: 
#        150
#        19997
#        40858
#        62369
#        76689
#        95329
#        116106
#        133441
#        155354
#        171591
#        191357
#        203240
#        223353
#        250866
#
# Disc length: 3926 seconds
#
# Revision: 2
# Processed by: cddbd v1.5.2PL0 Copyright (c) Steve Scherf et al.
# Submitted via: ExactAudioCopy v1.0b3
#
DISCID=c70f540e
DTITLE=AWEK - Burnin' Wire On South Lamar
DYEAR=2008
DGENRE=Blues
TTITLE0=Don't call me sugar
TTITLE1=Kiki
TTITLE2=I ain't gonna do
TTITLE3=Four times
TTITLE4=Can't get enough
TTITLE5=Come back baby
TTITLE6=Girl is the devil
TTITLE7=You don't have to go
TTITLE8=Easy money
TTITLE9=You take it easy
TTITLE10=I'll pay your train fare
TTITLE11=Yes sir yes sir
TTITLE12=Don't know much about love
TTITLE13=Big leg woman
EXTD=
EXTT0=
EXTT1=
EXTT2=
EXTT3=
EXTT4=
EXTT5=
EXTT6=
EXTT7=
EXTT8=
EXTT9=
EXTT10=
EXTT11=
EXTT12=
EXTT13=
PLAYORDER=
